<?xml version="1.0" standalone="no"?>
<!DOCTYPE svg PUBLIC "-//W3C//DTD SVG 20010904//EN"
 "http://www.w3.org/TR/2001/REC-SVG-20010904/DTD/svg10.dtd">
<svg version="1.0" xmlns="http://www.w3.org/2000/svg"
 width="320.000000pt" height="320.000000pt" viewBox="0 0 320.000000 320.000000"
 preserveAspectRatio="xMidYMid meet">
<metadata>
Created by potrace 1.14, written by Peter Selinger 2001-2017
</metadata>
<g transform="translate(0.000000,320.000000) scale(0.100000,-0.100000)"
fill="#000000" stroke="none">
<path d="M1732 2938 c-8 -8 -49 -13 -113 -14 -62 -1 -105 -7 -113 -14 -8 -9 2
-10 47 -5 60 8 70 1 37 -28 -11 -9 -20 -12 -20 -6 0 7 -11 9 -27 6 -15 -3 -38
-1 -51 4 -18 7 -29 6 -42 -6 -10 -9 -45 -18 -83 -22 l-66 -6 -56 -64 c-41 -46
-58 -74 -62 -101 -3 -20 -16 -51 -29 -67 l-24 -30 6 35 c4 19 12 47 19 63 19
38 2 34 -34 -10 -39 -47 -55 -117 -48 -207 7 -70 33 -176 57 -228 12 -26 10
-30 -59 -104 -82 -88 -111 -137 -111 -188 0 -55 31 -70 146 -71 52 0 94 -3 94
-7 0 -3 -15 -15 -32 -26 -18 -12 -59 -40 -90 -64 -66 -50 -171 -118 -182 -118
-4 0 -57 -33 -119 -73 -62 -40 -139 -89 -171 -108 -72 -42 -176 -143 -201
-194 -12 -27 -20 -79 -26 -169 -8 -118 -19 -210 -48 -406 -11 -70 -8 -80 45
-137 14 -15 42 -47 62 -71 61 -74 186 -172 220 -172 16 0 44 -3 62 -6 30 -7
32 -9 27 -40 -6 -33 -4 -35 63 -75 134 -79 359 -158 540 -187 112 -19 271 -24
374 -13 l100 10 38 43 c40 46 53 40 16 -7 l-22 -28 38 6 c21 3 40 8 42 10 3 2
5 58 5 123 1 88 6 132 20 169 10 28 23 79 30 115 18 100 23 101 52 9 60 -193
61 -202 49 -290 -7 -46 -10 -84 -8 -86 5 -5 166 56 182 69 6 4 14 39 18 76 4
38 14 81 22 97 14 28 14 30 -29 74 -46 49 -83 104 -89 134 -2 15 13 23 82 46
77 25 121 44 158 69 11 7 9 17 -9 48 -12 21 -27 56 -33 77 -6 21 -15 38 -20
37 -14 -3 -26 23 -20 43 3 9 0 17 -6 17 -7 0 -9 9 -5 23 5 18 4 19 -5 7 -9
-12 -11 -10 -6 11 6 29 -9 92 -27 111 -14 14 -37 99 -41 150 -4 44 -27 118
-37 118 -5 0 -6 7 -3 15 3 8 -1 29 -10 46 -9 18 -16 39 -16 47 0 9 -3 12 -7 9
-3 -4 -6 -21 -5 -39 0 -31 -1 -31 -9 -9 -5 13 -11 38 -14 56 -6 47 -24 80 -57
105 -27 20 -29 20 -24 4 3 -11 8 -32 11 -49 4 -22 -1 -17 -18 20 -24 50 -76
108 -93 104 -12 -3 -124 31 -124 38 0 3 12 2 28 -1 26 -6 26 -6 8 9 -11 8 -27
15 -35 15 -17 0 -69 36 -61 42 3 2 22 12 43 22 25 13 37 26 37 41 0 11 5 26
12 33 9 9 9 12 -1 12 -7 0 -24 9 -38 20 -14 11 -34 20 -43 20 -25 0 -73 59
-67 82 6 21 -33 139 -54 164 -9 12 -14 46 -15 103 0 53 -7 102 -16 126 -20 50
-10 65 46 65 29 0 37 -3 26 -10 -32 -20 23 -29 63 -10 21 10 30 11 39 2 9 -9
8 -12 -5 -12 -10 0 -14 -5 -11 -15 9 -23 41 -18 48 7 8 33 -7 42 -66 41 -49
-1 -50 0 -27 13 28 16 85 18 94 4 8 -13 55 -13 55 0 0 13 -43 30 -76 30 -14 0
-22 4 -19 10 3 6 -3 10 -14 10 -22 0 -51 35 -51 62 0 9 -9 23 -21 32 -26 18
-51 65 -45 83 7 16 44 31 108 43 60 12 104 -2 141 -43 25 -28 39 -21 19 10
-10 16 -92 53 -119 53 -13 0 -23 5 -23 10 0 6 7 10 15 10 8 0 15 4 15 9 0 5
-7 11 -15 15 -20 7 -19 26 0 26 9 0 29 -7 45 -15 29 -15 30 -15 30 5 0 41 -28
76 -74 95 -50 21 -62 41 -18 31 26 -6 26 -6 -10 29 -41 38 -48 41 -66 23z
m-35 -44 c-3 -3 -12 -4 -19 -1 -8 3 -5 6 6 6 11 1 17 -2 13 -5z m-217 -28 c0
-3 -4 -8 -10 -11 -5 -3 -10 -1 -10 4 0 6 5 11 10 11 6 0 10 -2 10 -4z m-65
-46 c8 -13 -5 -13 -25 0 -13 8 -13 10 2 10 9 0 20 -4 23 -10z m282 -3 c12 -13
-15 -13 -42 -1 l-30 14 33 -4 c19 -3 36 -7 39 -9z m119 -15 c-4 -3 -14 2 -24
12 -16 18 -16 18 6 6 13 -6 21 -14 18 -18z m-51 -39 c40 -56 42 -63 15 -63
-11 0 -19 3 -18 8 1 4 -3 22 -9 40 -12 33 -28 42 -36 20 -2 -7 -4 -1 -3 14 0
16 4 28 8 28 4 0 23 -21 43 -47z m-495 4 c0 -11 -48 -63 -60 -65 -8 -2 1 13
19 32 33 34 41 40 41 33z m404 -92 c3 -8 1 -15 -4 -15 -6 0 -10 7 -10 15 0 8
2 15 4 15 2 0 6 -7 10 -15z m-334 -275 c6 -11 7 -20 2 -20 -10 0 -32 21 -32
32 0 16 19 8 30 -12z m-75 -34 c3 -8 7 -7 11 2 15 33 24 5 19 -65 -2 -43 -5
-81 -5 -85 0 -5 -5 -8 -11 -8 -20 0 -51 90 -47 136 2 24 -1 44 -5 44 -5 0 -5
5 -1 12 7 11 24 -5 39 -36z m115 -206 c8 -5 11 -12 8 -16 -10 -9 -38 3 -38 16
0 12 10 13 30 0z m-180 -365 c0 -8 -2 -15 -4 -15 -2 0 -6 7 -10 15 -3 8 -1 15
4 15 6 0 10 -7 10 -15z m520 -55 c0 -5 -6 -10 -13 -10 -9 0 -17 -25 -24 -77
-13 -100 -34 -150 -69 -163 -42 -16 -183 7 -170 28 3 5 -4 38 -14 73 -27 86
-23 93 39 68 l50 -21 28 26 c15 14 32 26 38 26 5 0 35 13 65 29 62 33 70 35
70 21z m107 -149 c29 -29 74 -82 100 -118 26 -36 60 -80 76 -98 15 -18 27 -36
27 -39 0 -10 -50 50 -95 114 -22 30 -75 93 -120 140 -44 46 -71 78 -60 70 11
-8 43 -39 72 -69z m-107 22 c0 -7 -4 -13 -10 -13 -5 0 -10 12 -10 28 0 21 2
24 10 12 5 -8 10 -21 10 -27z m0 -47 c0 -8 -10 -25 -22 -38 -13 -13 -18 -17
-12 -8 7 8 15 25 18 38 8 25 16 29 16 8z m289 -50 c-1 -17 -2 -16 -9 7 -5 16
-12 34 -17 41 -4 6 0 3 10 -7 9 -11 17 -29 16 -41z m-219 -90 c0 -6 -11 13
-25 42 -14 30 -25 59 -24 65 0 15 49 -91 49 -107z m229 -31 c0 -5 -4 -3 -9 5
-5 8 -9 22 -9 30 0 16 17 -16 18 -35z m-205 -138 c6 -30 5 -30 -5 -7 -12 29
-49 166 -48 177 1 12 47 -134 53 -170z m283 136 c-3 -10 -5 -4 -5 12 0 17 2
24 5 18 2 -7 2 -21 0 -30z m-537 -132 c0 -5 7 -14 15 -21 8 -7 15 -17 15 -23
0 -5 -10 3 -22 19 -12 16 -29 36 -38 44 -8 8 -32 38 -54 65 -37 49 -37 48 23
-12 33 -35 61 -67 61 -72z m29 54 c0 -5 -6 -1 -14 9 -8 11 -15 24 -15 30 0 5
7 1 15 -10 8 -10 14 -23 14 -29z m-475 -9 c-3 -21 -8 -35 -11 -32 -2 2 -1 20
3 40 3 21 8 35 11 32 2 -2 1 -20 -3 -40z m993 22 c-3 -8 -6 -5 -6 6 -1 11 2
17 5 13 3 -3 4 -12 1 -19z m-1257 -32 c0 -26 -6 -18 -14 19 -5 22 -4 26 4 15
5 -8 10 -24 10 -34z m837 12 c-3 -8 -6 -5 -6 6 -1 11 2 17 5 13 3 -3 4 -12 1
-19z m500 0 c-3 -8 -6 -5 -6 6 -1 11 2 17 5 13 3 -3 4 -12 1 -19z m-950 -10
c-3 -8 -6 -5 -6 6 -1 11 2 17 5 13 3 -3 4 -12 1 -19z m743 -41 c0 -12 0 -11
-24 28 l-17 30 20 -24 c12 -13 21 -28 21 -34z m-711 -47 c0 -8 -6 0 -14 19 -8
18 -15 36 -15 40 1 13 29 -45 29 -59z m868 23 c-3 -10 -5 -4 -5 12 0 17 2 24
5 18 2 -7 2 -21 0 -30z m-1040 -5 c-3 -8 -6 -5 -6 6 -1 11 2 17 5 13 3 -3 4
-12 1 -19z m548 -80 c37 -103 37 -106 0 -29 -19 41 -33 76 -30 79 3 3 -1 12
-7 21 -10 13 -10 14 1 4 8 -7 24 -40 36 -75z m-1225 32 c-6 -11 -13 -20 -16
-20 -2 0 0 9 6 20 6 11 13 20 16 20 2 0 0 -9 -6 -20z m1715 -150 c-8 -30 -12
-41 -10 -25 3 17 9 68 13 115 7 83 7 84 9 25 2 -33 -4 -85 -12 -115z m-80 11
c21 -140 17 -146 -10 -16 -12 61 -26 119 -31 130 -7 19 -7 19 9 3 11 -10 22
-52 32 -117z m-495 73 c21 -49 26 -70 9 -41 -17 29 -40 87 -34 87 3 0 15 -21
25 -46z m317 -11 c-3 -2 -8 5 -12 17 -4 14 -12 19 -22 15 -13 -5 -14 -3 -3 11
12 14 15 13 28 -11 7 -15 11 -29 9 -32z m-610 15 c-3 -8 -6 -5 -6 6 -1 11 2
17 5 13 3 -3 4 -12 1 -19z m827 -10 c4 -17 2 -28 -4 -28 -5 0 -10 14 -10 32 0
36 4 35 14 -4z m-614 2 c6 -11 8 -20 6 -20 -3 0 -10 9 -16 20 -6 11 -8 20 -6
20 3 0 10 -9 16 -20z m-105 0 c3 -5 1 -10 -4 -10 -6 0 -11 5 -11 10 0 6 2 10
4 10 3 0 8 -4 11 -10z m504 -49 c-24 -33 -21 -68 11 -109 27 -33 18 -42 -43
-43 -62 -1 -81 -8 -85 -33 -3 -17 2 -18 72 -14 84 5 104 -6 29 -16 -80 -10
-423 -7 -423 4 0 6 28 10 61 10 52 0 60 2 50 14 -10 11 -8 17 6 26 15 9 11 10
-22 6 -22 -3 -55 -6 -74 -6 -25 0 -32 -4 -27 -15 3 -8 1 -15 -4 -15 -12 0 -13
20 -2 36 4 6 36 14 72 18 62 7 67 6 88 -19 12 -14 20 -30 17 -35 -4 -6 2 -10
12 -10 12 0 19 7 19 20 0 13 -7 20 -18 20 -10 0 -18 5 -18 10 0 6 33 10 80 10
81 0 81 0 94 31 16 38 10 77 -15 92 -28 17 -23 30 9 23 37 -10 52 -32 52 -81
0 -33 -5 -44 -22 -54 -23 -11 -23 -11 2 -6 14 2 39 5 55 6 18 1 23 3 12 6 -22
6 -37 42 -37 88 0 27 6 37 28 48 41 22 45 20 21 -12z m-590 -41 l-1 -35 -8 30
c-4 17 -8 39 -9 50 -1 16 1 17 9 5 5 -8 9 -31 9 -50z m154 18 c6 -21 22 -18
22 5 0 5 6 12 13 15 6 2 12 -3 12 -12 0 -10 6 -13 15 -10 11 5 15 -2 17 -27
l1 -34 4 33 c4 27 7 31 18 22 11 -9 18 -7 31 9 20 23 34 19 34 -11 0 -17 3
-18 15 -8 8 7 24 10 35 7 11 -3 20 0 20 6 1 7 9 1 20 -12 17 -19 21 -21 26 -7
5 13 35 24 34 14 0 -2 -6 -23 -14 -47 -14 -47 -36 -67 -36 -32 0 11 -4 23 -10
26 -5 3 -10 2 -10 -4 0 -19 -38 -33 -60 -21 -14 7 -20 7 -20 0 0 -5 -4 -10
-10 -10 -5 0 -10 14 -10 30 0 21 -5 30 -16 30 -11 0 -14 -6 -9 -20 8 -25 -20
-38 -46 -21 -12 7 -19 7 -19 1 0 -21 -20 -9 -26 15 -8 33 -22 32 -26 -2 l-4
-28 -11 25 c-19 47 -24 90 -9 90 8 0 16 -10 19 -22z m477 -38 c0 -16 -2 -30
-4 -30 -2 0 -6 14 -8 30 -3 17 -1 30 4 30 4 0 8 -13 8 -30z m367 -22 c-3 -7
-5 -2 -5 12 0 14 2 19 5 13 2 -7 2 -19 0 -25z m20 -10 c-3 -8 -6 -5 -6 6 -1
11 2 17 5 13 3 -3 4 -12 1 -19z m-997 -2 c0 -3 -4 -8 -10 -11 -5 -3 -10 -1
-10 4 0 6 5 11 10 11 6 0 10 -2 10 -4z m687 -18 c-3 -8 -6 -5 -6 6 -1 11 2 17
5 13 3 -3 4 -12 1 -19z m120 0 c-3 -8 -6 -5 -6 6 -1 11 2 17 5 13 3 -3 4 -12
1 -19z m-713 -4 c3 -8 2 -12 -4 -9 -6 3 -10 10 -10 16 0 14 7 11 14 -7z m-97
-51 c-3 -10 -5 -4 -5 12 0 17 2 24 5 18 2 -7 2 -21 0 -30z m713 -8 c0 -5 -5
-3 -10 5 -5 8 -10 20 -10 25 0 6 5 3 10 -5 5 -8 10 -19 10 -25z m-51 -60 c0
-5 -4 -3 -9 5 -5 8 -9 22 -9 30 0 16 17 -16 18 -35z m361 24 c0 -6 -4 -7 -10
-4 -5 3 -10 11 -10 16 0 6 5 7 10 4 6 -3 10 -11 10 -16z m-273 -36 c-3 -10 -5
-2 -5 17 0 19 2 27 5 18 2 -10 2 -26 0 -35z m-617 -46 c0 -5 -4 -5 -10 -2 -5
3 -10 14 -10 23 0 15 2 15 10 2 5 -8 10 -19 10 -23z m624 -9 c-9 -49 -25 -100
-31 -94 -3 2 0 19 6 38 6 18 13 45 16 61 8 38 16 34 9 -5z m-227 -120 c-3 -8
-6 -5 -6 6 -1 11 2 17 5 13 3 -3 4 -12 1 -19z m10 -50 c-3 -8 -6 -5 -6 6 -1
11 2 17 5 13 3 -3 4 -12 1 -19z m-370 -30 c-3 -8 -6 -5 -6 6 -1 11 2 17 5 13
3 -3 4 -12 1 -19z m390 -50 c-3 -8 -6 -5 -6 6 -1 11 2 17 5 13 3 -3 4 -12 1
-19z m36 -59 c5 -4 7 -13 5 -20 -3 -8 1 -36 8 -64 16 -60 17 -78 4 -70 -5 3
-10 19 -10 35 0 16 -5 32 -10 35 -6 4 -8 10 -6 14 5 7 -5 57 -19 96 l-7 20 13
-20 c7 -11 17 -23 22 -26z m-319 -75 c3 -8 2 -12 -4 -9 -6 3 -10 10 -10 16 0
14 7 11 14 -7z m-84 -28 c0 -14 -29 -31 -38 -21 -6 6 18 35 29 35 5 0 9 -6 9
-14z m218 -8 c-6 -16 -48 -18 -48 -1 0 7 11 13 26 13 15 0 24 -5 22 -12z m82
5 c-8 -3 -24 -10 -35 -16 -18 -9 -19 -9 -6 6 7 10 23 17 35 16 14 0 16 -2 6
-6z m-198 -25 c-7 -7 -12 -8 -12 -2 0 14 12 26 19 19 2 -3 -1 -11 -7 -17z
m-37 -6 c-3 -3 -11 0 -18 7 -9 10 -8 11 6 5 10 -3 15 -9 12 -12z m-88 -89 c-3
-10 -5 -4 -5 12 0 17 2 24 5 18 2 -7 2 -21 0 -30z m667 29 c-6 -4 -14 -14 -17
-22 -4 -10 -6 -8 -6 8 -1 15 5 22 17 22 10 0 13 -3 6 -8z m-470 -51 c-3 -3
-15 6 -27 18 l-22 24 27 -19 c14 -10 24 -21 22 -23z m443 -43 c-3 -7 -5 -2 -5
12 0 14 2 19 5 13 2 -7 2 -19 0 -25z m-597 -105 c0 -7 -39 17 -46 28 -3 6 5 3
20 -6 14 -10 26 -19 26 -22z"/>
<path d="M1258 2323 c-2 -10 -1 -29 3 -43 6 -20 7 -17 8 18 1 44 -4 54 -11 25z"/>
<path d="M1720 880 c0 -11 4 -20 8 -20 4 0 8 9 8 20 0 11 -4 20 -8 20 -4 0 -8
-9 -8 -20z"/>
<path d="M1648 973 c6 -2 18 -2 25 0 6 3 1 5 -13 5 -14 0 -19 -2 -12 -5z"/>
<path d="M1983 2383 c-20 -8 -15 -23 7 -23 11 0 20 7 20 15 0 15 -6 17 -27 8z"/>
<path d="M1950 2295 c0 -8 2 -15 4 -15 2 0 6 7 10 15 3 8 1 15 -4 15 -6 0 -10
-7 -10 -15z"/>
<path d="M1929 2252 c5 -10 18 -25 27 -33 11 -9 9 -2 -6 19 -26 35 -36 42 -21
14z"/>
<path d="M1887 2207 c-22 -17 -28 -29 -25 -52 5 -44 34 -45 52 -2 7 19 19 38
25 42 9 5 9 10 0 21 -15 19 -19 18 -52 -9z"/>
<path d="M1931 2141 c-9 -6 -10 -14 -4 -25 8 -14 12 -14 27 -3 11 8 16 19 12
25 -9 14 -16 15 -35 3z"/>
<path d="M1818 2030 c-18 -16 -28 -29 -23 -29 15 0 82 58 68 59 -7 0 -27 -13
-45 -30z"/>
<path d="M1841 2013 c-14 -11 -12 -12 14 -12 17 0 39 6 49 14 18 13 17 14 -14
12 -18 -1 -40 -7 -49 -14z"/>
<path d="M1894 1946 c23 -19 32 -20 41 -6 3 6 0 10 -9 10 -8 0 -23 3 -33 6
-16 5 -16 4 1 -10z"/>
<path d="M55 1670 c-3 -5 -1 -10 4 -10 6 0 11 5 11 10 0 6 -2 10 -4 10 -3 0
-8 -4 -11 -10z"/>
<path d="M340 1653 c0 -13 5 -23 10 -23 13 0 13 11 0 30 -8 12 -10 11 -10 -7z"/>
<path d="M547 1638 c-7 -26 -4 -31 15 -26 11 2 12 8 2 26 l-11 23 -6 -23z"/>
<path d="M442 1638 c2 -6 10 -14 16 -16 7 -2 10 2 6 12 -7 18 -28 22 -22 4z"/>
<path d="M653 1631 c-10 -16 -9 -20 7 -24 24 -6 29 -1 23 24 -7 24 -15 24 -30
0z"/>
<path d="M780 1629 c0 -5 5 -7 10 -4 6 3 10 8 10 11 0 2 -4 4 -10 4 -5 0 -10
-5 -10 -11z"/>
<path d="M2125 1520 c21 -24 26 -25 19 -6 -3 8 -13 17 -22 21 -13 5 -13 2 3
-15z"/>
</g>
</svg>
